<?xml version="1.0" encoding="utf-8"?>
<!-- Generator: Adobe Illustrator 22.0.1, SVG Export Plug-In . SVG Version: 6.00 Build 0)  -->
<svg version="1.1" id="Capa_1" xmlns="http://www.w3.org/2000/svg" xmlns:xlink="http://www.w3.org/1999/xlink" x="0px" y="0px"
	 viewBox="0 0 35 35" style="enable-background:new 0 0 35 35;" xml:space="preserve">
<style type="text/css">
	.st0{fill:#FFE164;}
	.st1{fill:#FFFFFF;}
</style>
<circle class="st0" cx="17.5" cy="17.5" r="17.5"/>
<path class="st1" d="M23.5,25.6L9.4,11.5c-0.6-0.6-0.6-1.5,0-2.1l0,0c0.6-0.6,1.5-0.6,2.1,0l14.1,14.1c0.6,0.6,0.6,1.5,0,2.1l0,0
	C25,26.2,24.1,26.2,23.5,25.6z"/>
<path class="st1" d="M25.6,11.5L11.5,25.6c-0.6,0.6-1.5,0.6-2.1,0l0,0c-0.6-0.6-0.6-1.5,0-2.1L23.5,9.4c0.6-0.6,1.5-0.6,2.1,0l0,0
	C26.2,10,26.2,10.9,25.6,11.5z"/>
</svg>
